<svg xmlns="http://www.w3.org/2000/svg" viewBox="0 0 900 720" role="img" aria-labelledby="est-t est-d" font-family="DM Sans, Segoe UI, sans-serif">
<title id="est-t">A monitored estate</title>
<desc id="est-d">Topology of a typical monitored client estate: internet edge and firewall feeding a core switch, which serves virtualisation hosts, physical servers, network devices and endpoints, with every layer reporting into GLCTech monitoring over SNMP and agents.</desc>
<rect width="900" height="720" fill="#1f1f1f"/>
<defs><pattern id="grid" width="45" height="45" patternUnits="userSpaceOnUse"><path d="M 45 0 L 0 0 0 45" fill="none" stroke="#2b2b2b" stroke-width="1"/></pattern></defs>
<rect width="900" height="720" fill="url(#grid)"/>
<text x="28" y="48" fill="#ffffff" font-size="18" font-weight="700" font-family="Syne, sans-serif">What we watch</text>
<text x="28" y="70" fill="#8a8a8a" font-size="12">Every layer reports in — so a failure is a ticket, not a phone call from your client.</text>
<line x1="28" y1="86" x2="872" y2="86" stroke="#3d3d3d"/>
<path d="M 450.0 154.0 C 450.0 179.0 450.0 179.0 450.0 204.0" fill="none" stroke="#4a4a4a" stroke-width="1.5"/>
<path d="M 450.0 248.0 C 450.0 273.0 450.0 273.0 450.0 298.0" fill="none" stroke="#4a4a4a" stroke-width="1.5"/>
<rect x="320.0" y="110.0" width="260" height="44" rx="6" fill="#262626" stroke="#3d3d3d"/>
<rect x="320.0" y="110.0" width="3" height="44" rx="1.5" fill="#4ade80"/>
<text x="336.0" y="130.0" fill="#c9c9c9" font-size="12.5">Internet edge</text>
<text x="336.0" y="147.0" fill="#6f6f6f" font-size="10">2 circuits · failover tested</text>
<circle cx="564.0" cy="126.0" r="4" fill="#4ade80"/>
<rect x="320.0" y="204.0" width="260" height="44" rx="6" fill="#262626" stroke="#3d3d3d"/>
<rect x="320.0" y="204.0" width="3" height="44" rx="1.5" fill="#4ade80"/>
<text x="336.0" y="224.0" fill="#c9c9c9" font-size="12.5">Firewall</text>
<text x="336.0" y="241.0" fill="#6f6f6f" font-size="10">policy + IDS/IPS</text>
<circle cx="564.0" cy="220.0" r="4" fill="#4ade80"/>
<rect x="320.0" y="298.0" width="260" height="44" rx="6" fill="#262626" stroke="#3d3d3d"/>
<rect x="320.0" y="298.0" width="3" height="44" rx="1.5" fill="#4ade80"/>
<text x="336.0" y="318.0" fill="#c9c9c9" font-size="12.5">Core switch</text>
<text x="336.0" y="335.0" fill="#6f6f6f" font-size="10">LACP · 10 Gbps uplinks</text>
<circle cx="564.0" cy="314.0" r="4" fill="#4ade80"/>
<path d="M 450.0 342.0 C 450.0 386.0 150.0 386.0 150.0 430.0" fill="none" stroke="#4a4a4a" stroke-width="1.5"/>
<rect x="62.0" y="430.0" width="176" height="44" rx="6" fill="#262626" stroke="#3d3d3d"/>
<rect x="62.0" y="430.0" width="3" height="44" rx="1.5" fill="#4ade80"/>
<text x="78.0" y="450.0" fill="#c9c9c9" font-size="12.5">Virtual hosts</text>
<text x="78.0" y="467.0" fill="#6f6f6f" font-size="10">12 VMs · 3 hosts</text>
<circle cx="222.0" cy="446.0" r="4" fill="#4ade80"/>
<path d="M 450.0 342.0 C 450.0 386.0 350.0 386.0 350.0 430.0" fill="none" stroke="#4a4a4a" stroke-width="1.5"/>
<rect x="262.0" y="430.0" width="176" height="44" rx="6" fill="#262626" stroke="#3d3d3d"/>
<rect x="262.0" y="430.0" width="3" height="44" rx="1.5" fill="#e6a826"/>
<text x="278.0" y="450.0" fill="#c9c9c9" font-size="12.5">Servers</text>
<text x="278.0" y="467.0" fill="#6f6f6f" font-size="10">file · mail · SQL</text>
<circle cx="422.0" cy="446.0" r="4" fill="#e6a826"/>
<path d="M 450.0 342.0 C 450.0 386.0 550.0 386.0 550.0 430.0" fill="none" stroke="#4a4a4a" stroke-width="1.5"/>
<rect x="462.0" y="430.0" width="176" height="44" rx="6" fill="#262626" stroke="#3d3d3d"/>
<rect x="462.0" y="430.0" width="3" height="44" rx="1.5" fill="#4ade80"/>
<text x="478.0" y="450.0" fill="#c9c9c9" font-size="12.5">Network devices</text>
<text x="478.0" y="467.0" fill="#6f6f6f" font-size="10">APs, switches, UPS</text>
<circle cx="622.0" cy="446.0" r="4" fill="#4ade80"/>
<path d="M 450.0 342.0 C 450.0 386.0 750.0 386.0 750.0 430.0" fill="none" stroke="#4a4a4a" stroke-width="1.5"/>
<rect x="662.0" y="430.0" width="176" height="44" rx="6" fill="#262626" stroke="#3d3d3d"/>
<rect x="662.0" y="430.0" width="3" height="44" rx="1.5" fill="#4ade80"/>
<text x="678.0" y="450.0" fill="#c9c9c9" font-size="12.5">Endpoints</text>
<text x="678.0" y="467.0" fill="#6f6f6f" font-size="10">184 agents</text>
<circle cx="822.0" cy="446.0" r="4" fill="#4ade80"/>
<path d="M 150.0 474.0 L 150.0 540.0" stroke="#e6262c" stroke-width="1.2" stroke-opacity="0.5" stroke-dasharray="3 4"/>
<path d="M 350.0 474.0 L 350.0 540.0" stroke="#e6262c" stroke-width="1.2" stroke-opacity="0.5" stroke-dasharray="3 4"/>
<path d="M 550.0 474.0 L 550.0 540.0" stroke="#e6262c" stroke-width="1.2" stroke-opacity="0.5" stroke-dasharray="3 4"/>
<path d="M 750.0 474.0 L 750.0 540.0" stroke="#e6262c" stroke-width="1.2" stroke-opacity="0.5" stroke-dasharray="3 4"/>
<rect x="120.0" y="540" width="660" height="52" rx="6" fill="#2d2d2d" stroke="#e6262c" stroke-opacity="0.55"/>
<circle cx="144.0" cy="566" r="5" fill="#e6262c"/>
<text x="160.0" y="564.0" fill="#ffffff" font-size="13" font-weight="600">GLCTech monitoring</text>
<text x="160.0" y="581.0" fill="#8a8a8a" font-size="10.5">SNMP · agents · API checks — 24/7, with escalation</text>
<text x="756.0" y="570.0" fill="#4ade80" font-size="11" font-weight="600" text-anchor="end">99.98% availability</text>
<text x="28" y="668" fill="#ffffff" font-size="20" font-weight="700" font-family="Syne, sans-serif">144+</text>
<text x="28" y="686" fill="#6f6f6f" font-size="10.5">devices under SNMP</text>
<text x="278" y="668" fill="#ffffff" font-size="20" font-weight="700" font-family="Syne, sans-serif">3k+</text>
<text x="278" y="686" fill="#6f6f6f" font-size="10.5">monitoring capacity</text>
<text x="528" y="668" fill="#ffffff" font-size="20" font-weight="700" font-family="Syne, sans-serif">24/7</text>
<text x="528" y="686" fill="#6f6f6f" font-size="10.5">eyes on the alerts</text>
<line x1="28" y1="642" x2="872" y2="642" stroke="#3d3d3d"/>
</svg>